<svg xmlns="http://www.w3.org/2000/svg" width="980" height="236" viewBox="0 0 980 236" role="img" aria-label="JUNG behavioral glyph states with a fixed temporal anchor and identical home/return geometry"><title>JUNG behavioral glyph states with a fixed temporal anchor and identical home/return geometry</title><g font-family="Arial, Helvetica, sans-serif"><rect x="0" y="0" width="980" height="236" fill="#0e1115"/><rect x="16" y="16" width="176" height="176" fill="#14171b" stroke="#303840"/><path d="M 45 62 v -12 h 12 M 163 62 v -12 h -12 M 45 150 v 12 h 12 M 163 150 v 12 h -12" fill="none" stroke="#303840"/><line x1="104" y1="56" x2="104" y2="156" stroke="#45c9e0" stroke-width="1" opacity=".6"/><line x1="96" y1="106" x2="112" y2="106" stroke="#45c9e0" /><circle cx="104" cy="106" r="2.5" fill="#45c9e0"/><line x1="104" y1="74" x2="132" y2="90" stroke="#d4dee8" stroke-width="1.4"/><line x1="132" y1="90" x2="132" y2="122" stroke="#d4dee8" stroke-width="1.4"/><line x1="132" y1="122" x2="104" y2="138" stroke="#d4dee8" stroke-width="1.4"/><line x1="104" y1="138" x2="76" y2="122" stroke="#d4dee8" stroke-width="1.4"/><line x1="76" y1="122" x2="76" y2="90" stroke="#d4dee8" stroke-width="1.4"/><line x1="76" y1="90" x2="104" y2="74" stroke="#d4dee8" stroke-width="1.4"/><text x="27" y="178" font-size="10" fill="#d4dee8">STABLE / HOME</text><rect x="208" y="16" width="176" height="176" fill="#14171b" stroke="#303840"/><path d="M 237 62 v -12 h 12 M 355 62 v -12 h -12 M 237 150 v 12 h 12 M 355 150 v 12 h -12" fill="none" stroke="#303840"/><line x1="296" y1="56" x2="296" y2="156" stroke="#45c9e0" stroke-width="1" opacity=".6"/><line x1="288" y1="106" x2="304" y2="106" stroke="#45c9e0" /><circle cx="296" cy="106" r="2.5" fill="#45c9e0"/><line x1="293" y1="74" x2="321" y2="90" stroke="#d4dee8" stroke-width="1.4"/><line x1="327" y1="90" x2="327" y2="122" stroke="#d4dee8" stroke-width="1.4"/><line x1="321" y1="122" x2="293" y2="138" stroke="#d4dee8" stroke-width="1.4"/><line x1="299" y1="138" x2="271" y2="122" stroke="#d4dee8" stroke-width="1.4"/><line x1="265" y1="122" x2="265" y2="90" stroke="#d4dee8" stroke-width="1.4"/><line x1="271" y1="90" x2="299" y2="74" stroke="#d4dee8" stroke-width="1.4"/><text x="219" y="178" font-size="9" fill="#d4dee8">RESTLESS / TENSION</text><rect x="400" y="16" width="176" height="176" fill="#14171b" stroke="#303840"/><path d="M 429 62 v -12 h 12 M 547 62 v -12 h -12 M 429 150 v 12 h 12 M 547 150 v 12 h -12" fill="none" stroke="#303840"/><line x1="488" y1="56" x2="488" y2="156" stroke="#45c9e0" stroke-width="1" opacity=".6"/><line x1="480" y1="106" x2="496" y2="106" stroke="#45c9e0" /><circle cx="488" cy="106" r="2.5" fill="#45c9e0"/><line x1="497" y1="65.16" x2="513.8" y2="78.6" stroke="#ffa800" stroke-width="1.4"/><line x1="528.36" y1="93.08" x2="525" y2="114.2" stroke="#ffa800" stroke-width="1.4"/><line x1="528.36" y1="118.92" x2="508.2" y2="126.6" stroke="#ffa800" stroke-width="1.4"/><line x1="479" y1="146.84" x2="462.2" y2="133.4" stroke="#ffa800" stroke-width="1.4"/><line x1="447.64" y1="118.92" x2="451" y2="97.8" stroke="#ffa800" stroke-width="1.4"/><line x1="447.64" y1="93.08" x2="467.8" y2="85.4" stroke="#ffa800" stroke-width="1.4"/><text x="411" y="178" font-size="10" fill="#ffa800">INTERVENTION</text><rect x="592" y="16" width="176" height="176" fill="#14171b" stroke="#303840"/><path d="M 621 62 v -12 h 12 M 739 62 v -12 h -12 M 621 150 v 12 h 12 M 739 150 v 12 h -12" fill="none" stroke="#303840"/><line x1="680" y1="56" x2="680" y2="156" stroke="#45c9e0" stroke-width="1" opacity=".6"/><line x1="672" y1="106" x2="688" y2="106" stroke="#45c9e0" /><circle cx="680" cy="106" r="2.5" fill="#45c9e0"/><line x1="683" y1="72" x2="708" y2="90" stroke="#d4dee8" stroke-width="1.4"/><line x1="711" y1="92" x2="708" y2="122" stroke="#d4dee8" stroke-width="1.4"/><line x1="711" y1="120" x2="680" y2="138" stroke="#d4dee8" stroke-width="1.4"/><line x1="677" y1="140" x2="652" y2="122" stroke="#d4dee8" stroke-width="1.4"/><line x1="649" y1="120" x2="652" y2="90" stroke="#d4dee8" stroke-width="1.4"/><line x1="649" y1="92" x2="680" y2="74" stroke="#d4dee8" stroke-width="1.4"/><text x="603" y="178" font-size="10" fill="#d4dee8">RESOLVING</text><rect x="784" y="16" width="176" height="176" fill="#14171b" stroke="#303840"/><path d="M 813 62 v -12 h 12 M 931 62 v -12 h -12 M 813 150 v 12 h 12 M 931 150 v 12 h -12" fill="none" stroke="#303840"/><line x1="872" y1="56" x2="872" y2="156" stroke="#45c9e0" stroke-width="1" opacity=".6"/><line x1="864" y1="106" x2="880" y2="106" stroke="#45c9e0" /><circle cx="872" cy="106" r="2.5" fill="#45c9e0"/><line x1="872" y1="74" x2="900" y2="90" stroke="#d4dee8" stroke-width="1.4"/><line x1="900" y1="90" x2="900" y2="122" stroke="#d4dee8" stroke-width="1.4"/><line x1="900" y1="122" x2="872" y2="138" stroke="#d4dee8" stroke-width="1.4"/><line x1="872" y1="138" x2="844" y2="122" stroke="#d4dee8" stroke-width="1.4"/><line x1="844" y1="122" x2="844" y2="90" stroke="#d4dee8" stroke-width="1.4"/><line x1="844" y1="90" x2="872" y2="74" stroke="#d4dee8" stroke-width="1.4"/><text x="795" y="178" font-size="10" fill="#d4dee8">RETURN HOME</text><text x="17" y="218" font-size="10" fill="#6e7d8c">JUNG</text><text x="86" y="218" font-size="10" fill="#6e7d8c">DECISION  →  BOUNDED INTERVENTION  →  RESOLVE  →  RETURN HOME</text></g></svg>
