<svg xmlns="http://www.w3.org/2000/svg" width="294" height="70" viewBox="0 0 294 70" role="img" aria-label="UI LAB 001 eq_high — default state"><title>UI LAB 001 eq_high — default state</title><rect width="294" height="70" fill="#0e1115"/><rect x="0" y="0" width="294" height="70" fill="#0e1115" fill-opacity="1" stroke="none" stroke-opacity="1" stroke-width="1"/><rect x="0" y="0" width="14.7" height="8.75" fill="#45c9e0" fill-opacity="0.00009183966150383702" stroke="none" stroke-opacity="1" stroke-width="1"/><rect x="14.7" y="0" width="14.7" height="8.75" fill="#45c9e0" fill-opacity="0.00027325758724692486" stroke="none" stroke-opacity="1" stroke-width="1"/><rect x="29.4" y="0" width="14.7" height="8.75" fill="#45c9e0" fill-opacity="0.0004479470043020556" stroke="none" stroke-opacity="1" stroke-width="1"/><rect x="44.1" y="0" width="14.7" height="8.75" fill="#45c9e0" fill-opacity="0.0006116064794603956" stroke="none" stroke-opacity="1" stroke-width="1"/><rect x="58.8" y="0" width="14.7" height="8.75" fill="#45c9e0" fill-opacity="0.0007602061732888893" stroke="none" stroke-opacity="1" stroke-width="1"/><rect x="73.5" y="0" width="14.7" height="8.75" fill="#45c9e0" fill-opacity="0.0008900870681513698" stroke="none" stroke-opacity="1" stroke-width="1"/><rect x="88.2" y="0" width="14.7" height="8.75" fill="#45c9e0" fill-opacity="0.0009980510653663462" stroke="none" stroke-opacity="1" stroke-width="1"/><rect x="102.9" y="0" width="14.7" height="8.75" fill="#45c9e0" fill-opacity="0.001081439733010422" stroke="none" stroke-opacity="1" stroke-width="1"/><rect x="117.6" y="0" width="14.7" height="8.75" fill="#45c9e0" fill-opacity="0.0011381997653350782" stroke="none" stroke-opacity="1" stroke-width="1"/><rect x="132.3" y="0" width="14.7" height="8.75" fill="#45c9e0" fill-opacity="0.0011669335419687355" stroke="none" stroke-opacity="1" stroke-width="1"/><rect x="147" y="0" width="14.7" height="8.75" fill="#45c9e0" fill-opacity="0.0011669335419687355" stroke="none" stroke-opacity="1" stroke-width="1"/><rect x="161.7" y="0" width="14.7" height="8.75" fill="#45c9e0" fill-opacity="0.0011381997653350784" stroke="none" stroke-opacity="1" stroke-width="1"/><rect x="176.4" y="0" width="14.7" height="8.75" fill="#45c9e0" fill-opacity="0.001081439733010422" stroke="none" stroke-opacity="1" stroke-width="1"/><rect x="191.1" y="0" width="14.7" height="8.75" fill="#45c9e0" fill-opacity="0.0009980510653663462" stroke="none" stroke-opacity="1" stroke-width="1"/><rect x="205.8" y="0" width="14.7" height="8.75" fill="#45c9e0" fill-opacity="0.00089008706815137" stroke="none" stroke-opacity="1" stroke-width="1"/><rect x="220.5" y="0" width="14.7" height="8.75" fill="#45c9e0" fill-opacity="0.0007602061732888895" stroke="none" stroke-opacity="1" stroke-width="1"/><rect x="235.2" y="0" width="14.7" height="8.75" fill="#45c9e0" fill-opacity="0.0006116064794603959" stroke="none" stroke-opacity="1" stroke-width="1"/><rect x="249.9" y="0" width="14.7" height="8.75" fill="#45c9e0" fill-opacity="0.00044794700430205575" stroke="none" stroke-opacity="1" stroke-width="1"/><rect x="264.6" y="0" width="14.7" height="8.75" fill="#45c9e0" fill-opacity="0.00027325758724692503" stroke="none" stroke-opacity="1" stroke-width="1"/><rect x="279.3" y="0" width="14.7" height="8.75" fill="#45c9e0" fill-opacity="0.00009183966150383717" stroke="none" stroke-opacity="1" stroke-width="1"/><rect x="0" y="8.75" width="14.7" height="8.75" fill="#45c9e0" fill-opacity="0.00026153722857615654" stroke="none" stroke-opacity="1" stroke-width="1"/><rect x="14.7" y="8.75" width="14.7" height="8.75" fill="#45c9e0" fill-opacity="0.0007781717711686271" stroke="none" stroke-opacity="1" stroke-width="1"/><rect x="29.4" y="8.75" width="14.7" height="8.75" fill="#45c9e0" fill-opacity="0.0012756451421508845" stroke="none" stroke-opacity="1" stroke-width="1"/><rect x="44.1" y="8.75" width="14.7" height="8.75" fill="#45c9e0" fill-opacity="0.0017417078961098843" stroke="none" stroke-opacity="1" stroke-width="1"/><rect x="58.8" y="8.75" width="14.7" height="8.75" fill="#45c9e0" fill-opacity="0.002164884021269556" stroke="none" stroke-opacity="1" stroke-width="1"/><rect x="73.5" y="8.75" width="14.7" height="8.75" fill="#45c9e0" fill-opacity="0.0025347535169874284" stroke="none" stroke-opacity="1" stroke-width="1"/><rect x="88.2" y="8.75" width="14.7" height="8.75" fill="#45c9e0" fill-opacity="0.0028422089687524495" stroke="none" stroke-opacity="1" stroke-width="1"/><rect x="102.9" y="8.75" width="14.7" height="8.75" fill="#45c9e0" fill-opacity="0.00307967980295602" stroke="none" stroke-opacity="1" stroke-width="1"/><rect x="117.6" y="8.75" width="14.7" height="8.75" fill="#45c9e0" fill-opacity="0.0032413186995395348" stroke="none" stroke-opacity="1" stroke-width="1"/><rect x="132.3" y="8.75" width="14.7" height="8.75" fill="#45c9e0" fill-opacity="0.0033231455724203663" stroke="none" stroke-opacity="1" stroke-width="1"/><rect x="147" y="8.75" width="14.7" height="8.75" fill="#45c9e0" fill-opacity="0.0033231455724203663" stroke="none" stroke-opacity="1" stroke-width="1"/><rect x="161.7" y="8.75" width="14.7" height="8.75" fill="#45c9e0" fill-opacity="0.0032413186995395356" stroke="none" stroke-opacity="1" stroke-width="1"/><rect x="176.4" y="8.75" width="14.7" height="8.75" fill="#45c9e0" fill-opacity="0.00307967980295602" stroke="none" stroke-opacity="1" stroke-width="1"/><rect x="191.1" y="8.75" width="14.7" height="8.75" fill="#45c9e0" fill-opacity="0.00284220896875245" stroke="none" stroke-opacity="1" stroke-width="1"/><rect x="205.8" y="8.75" width="14.7" height="8.75" fill="#45c9e0" fill-opacity="0.002534753516987429" stroke="none" stroke-opacity="1" stroke-width="1"/><rect x="220.5" y="8.75" width="14.7" height="8.75" fill="#45c9e0" fill-opacity="0.002164884021269556" stroke="none" stroke-opacity="1" stroke-width="1"/><rect x="235.2" y="8.75" width="14.7" height="8.75" fill="#45c9e0" fill-opacity="0.0017417078961098848" stroke="none" stroke-opacity="1" stroke-width="1"/><rect x="249.9" y="8.75" width="14.7" height="8.75" fill="#45c9e0" fill-opacity="0.001275645142150885" stroke="none" stroke-opacity="1" stroke-width="1"/><rect x="264.6" y="8.75" width="14.7" height="8.75" fill="#45c9e0" fill-opacity="0.0007781717711686275" stroke="none" stroke-opacity="1" stroke-width="1"/><rect x="279.3" y="8.75" width="14.7" height="8.75" fill="#45c9e0" fill-opacity="0.0002615372285761569" stroke="none" stroke-opacity="1" stroke-width="1"/><rect x="0" y="17.5" width="14.7" height="8.75" fill="#45c9e0" fill-opacity="0.0003914181234386371" stroke="none" stroke-opacity="1" stroke-width="1"/><rect x="14.7" y="17.5" width="14.7" height="8.75" fill="#45c9e0" fill-opacity="0.0011646163570745776" stroke="none" stroke-opacity="1" stroke-width="1"/><rect x="29.4" y="17.5" width="14.7" height="8.75" fill="#45c9e0" fill-opacity="0.0019091378708592508" stroke="none" stroke-opacity="1" stroke-width="1"/><rect x="44.1" y="17.5" width="14.7" height="8.75" fill="#45c9e0" fill-opacity="0.0026066500741980378" stroke="none" stroke-opacity="1" stroke-width="1"/><rect x="58.8" y="17.5" width="14.7" height="8.75" fill="#45c9e0" fill-opacity="0.0032399779017344547" stroke="none" stroke-opacity="1" stroke-width="1"/><rect x="73.5" y="17.5" width="14.7" height="8.75" fill="#45c9e0" fill-opacity="0.0037935267204600013" stroke="none" stroke-opacity="1" stroke-width="1"/><rect x="88.2" y="17.5" width="14.7" height="8.75" fill="#45c9e0" fill-opacity="0.004253666321334453" stroke="none" stroke-opacity="1" stroke-width="1"/><rect x="102.9" y="17.5" width="14.7" height="8.75" fill="#45c9e0" fill-opacity="0.004609066540268498" stroke="none" stroke-opacity="1" stroke-width="1"/><rect x="117.6" y="17.5" width="14.7" height="8.75" fill="#45c9e0" fill-opacity="0.004850976244366277" stroke="none" stroke-opacity="1" stroke-width="1"/><rect x="132.3" y="17.5" width="14.7" height="8.75" fill="#45c9e0" fill-opacity="0.004973438813860626" stroke="none" stroke-opacity="1" stroke-width="1"/><rect x="147" y="17.5" width="14.7" height="8.75" fill="#45c9e0" fill-opacity="0.004973438813860626" stroke="none" stroke-opacity="1" stroke-width="1"/><rect x="161.7" y="17.5" width="14.7" height="8.75" fill="#45c9e0" fill-opacity="0.004850976244366278" stroke="none" stroke-opacity="1" stroke-width="1"/><rect x="176.4" y="17.5" width="14.7" height="8.75" fill="#45c9e0" fill-opacity="0.004609066540268498" stroke="none" stroke-opacity="1" stroke-width="1"/><rect x="191.1" y="17.5" width="14.7" height="8.75" fill="#45c9e0" fill-opacity="0.0042536663213344535" stroke="none" stroke-opacity="1" stroke-width="1"/><rect x="205.8" y="17.5" width="14.7" height="8.75" fill="#45c9e0" fill-opacity="0.0037935267204600017" stroke="none" stroke-opacity="1" stroke-width="1"/><rect x="220.5" y="17.5" width="14.7" height="8.75" fill="#45c9e0" fill-opacity="0.0032399779017344556" stroke="none" stroke-opacity="1" stroke-width="1"/><rect x="235.2" y="17.5" width="14.7" height="8.75" fill="#45c9e0" fill-opacity="0.0026066500741980386" stroke="none" stroke-opacity="1" stroke-width="1"/><rect x="249.9" y="17.5" width="14.7" height="8.75" fill="#45c9e0" fill-opacity="0.0019091378708592515" stroke="none" stroke-opacity="1" stroke-width="1"/><rect x="264.6" y="17.5" width="14.7" height="8.75" fill="#45c9e0" fill-opacity="0.0011646163570745783" stroke="none" stroke-opacity="1" stroke-width="1"/><rect x="279.3" y="17.5" width="14.7" height="8.75" fill="#45c9e0" fill-opacity="0.00039141812343863777" stroke="none" stroke-opacity="1" stroke-width="1"/><rect x="0" y="26.25" width="14.7" height="8.75" fill="#45c9e0" fill-opacity="0.0004617091572217098" stroke="none" stroke-opacity="1" stroke-width="1"/><rect x="14.7" y="26.25" width="14.7" height="8.75" fill="#45c9e0" fill-opacity="0.00137375865988949" stroke="none" stroke-opacity="1" stroke-width="1"/><rect x="29.4" y="26.25" width="14.7" height="8.75" fill="#45c9e0" fill-opacity="0.0022519816651071917" stroke="none" stroke-opacity="1" stroke-width="1"/><rect x="44.1" y="26.25" width="14.7" height="8.75" fill="#45c9e0" fill-opacity="0.003074753407831304" stroke="none" stroke-opacity="1" stroke-width="1"/><rect x="58.8" y="26.25" width="14.7" height="8.75" fill="#45c9e0" fill-opacity="0.0038218145171331" stroke="none" stroke-opacity="1" stroke-width="1"/><rect x="73.5" y="26.25" width="14.7" height="8.75" fill="#45c9e0" fill-opacity="0.0044747698691478925" stroke="none" stroke-opacity="1" stroke-width="1"/><rect x="88.2" y="26.25" width="14.7" height="8.75" fill="#45c9e0" fill-opacity="0.005017541536074509" stroke="none" stroke-opacity="1" stroke-width="1"/><rect x="102.9" y="26.25" width="14.7" height="8.75" fill="#45c9e0" fill-opacity="0.005436764678117326" stroke="none" stroke-opacity="1" stroke-width="1"/><rect x="117.6" y="26.25" width="14.7" height="8.75" fill="#45c9e0" fill-opacity="0.005722116630197413" stroke="none" stroke-opacity="1" stroke-width="1"/><rect x="132.3" y="26.25" width="14.7" height="8.75" fill="#45c9e0" fill-opacity="0.005866571080225721" stroke="none" stroke-opacity="1" stroke-width="1"/><rect x="147" y="26.25" width="14.7" height="8.75" fill="#45c9e0" fill-opacity="0.005866571080225721" stroke="none" stroke-opacity="1" stroke-width="1"/><rect x="161.7" y="26.25" width="14.7" height="8.75" fill="#45c9e0" fill-opacity="0.0057221166301974135" stroke="none" stroke-opacity="1" stroke-width="1"/><rect x="176.4" y="26.25" width="14.7" height="8.75" fill="#45c9e0" fill-opacity="0.005436764678117326" stroke="none" stroke-opacity="1" stroke-width="1"/><rect x="191.1" y="26.25" width="14.7" height="8.75" fill="#45c9e0" fill-opacity="0.00501754153607451" stroke="none" stroke-opacity="1" stroke-width="1"/><rect x="205.8" y="26.25" width="14.7" height="8.75" fill="#45c9e0" fill-opacity="0.004474769869147894" stroke="none" stroke-opacity="1" stroke-width="1"/><rect x="220.5" y="26.25" width="14.7" height="8.75" fill="#45c9e0" fill-opacity="0.0038218145171331004" stroke="none" stroke-opacity="1" stroke-width="1"/><rect x="235.2" y="26.25" width="14.7" height="8.75" fill="#45c9e0" fill-opacity="0.0030747534078313047" stroke="none" stroke-opacity="1" stroke-width="1"/><rect x="249.9" y="26.25" width="14.7" height="8.75" fill="#45c9e0" fill-opacity="0.002251981665107192" stroke="none" stroke-opacity="1" stroke-width="1"/><rect x="264.6" y="26.25" width="14.7" height="8.75" fill="#45c9e0" fill-opacity="0.0013737586598894908" stroke="none" stroke-opacity="1" stroke-width="1"/><rect x="279.3" y="26.25" width="14.7" height="8.75" fill="#45c9e0" fill-opacity="0.0004617091572217105" stroke="none" stroke-opacity="1" stroke-width="1"/><rect x="0" y="35" width="14.7" height="8.75" fill="#45c9e0" fill-opacity="0.0004617091572217098" stroke="none" stroke-opacity="1" stroke-width="1"/><rect x="14.7" y="35" width="14.7" height="8.75" fill="#45c9e0" fill-opacity="0.00137375865988949" stroke="none" stroke-opacity="1" stroke-width="1"/><rect x="29.4" y="35" width="14.7" height="8.75" fill="#45c9e0" fill-opacity="0.0022519816651071917" stroke="none" stroke-opacity="1" stroke-width="1"/><rect x="44.1" y="35" width="14.7" height="8.75" fill="#45c9e0" fill-opacity="0.003074753407831304" stroke="none" stroke-opacity="1" stroke-width="1"/><rect x="58.8" y="35" width="14.7" height="8.75" fill="#45c9e0" fill-opacity="0.0038218145171331" stroke="none" stroke-opacity="1" stroke-width="1"/><rect x="73.5" y="35" width="14.7" height="8.75" fill="#45c9e0" fill-opacity="0.0044747698691478925" stroke="none" stroke-opacity="1" stroke-width="1"/><rect x="88.2" y="35" width="14.7" height="8.75" fill="#45c9e0" fill-opacity="0.005017541536074509" stroke="none" stroke-opacity="1" stroke-width="1"/><rect x="102.9" y="35" width="14.7" height="8.75" fill="#45c9e0" fill-opacity="0.005436764678117326" stroke="none" stroke-opacity="1" stroke-width="1"/><rect x="117.6" y="35" width="14.7" height="8.75" fill="#45c9e0" fill-opacity="0.005722116630197413" stroke="none" stroke-opacity="1" stroke-width="1"/><rect x="132.3" y="35" width="14.7" height="8.75" fill="#45c9e0" fill-opacity="0.005866571080225721" stroke="none" stroke-opacity="1" stroke-width="1"/><rect x="147" y="35" width="14.7" height="8.75" fill="#45c9e0" fill-opacity="0.005866571080225721" stroke="none" stroke-opacity="1" stroke-width="1"/><rect x="161.7" y="35" width="14.7" height="8.75" fill="#45c9e0" fill-opacity="0.0057221166301974135" stroke="none" stroke-opacity="1" stroke-width="1"/><rect x="176.4" y="35" width="14.7" height="8.75" fill="#45c9e0" fill-opacity="0.005436764678117326" stroke="none" stroke-opacity="1" stroke-width="1"/><rect x="191.1" y="35" width="14.7" height="8.75" fill="#45c9e0" fill-opacity="0.00501754153607451" stroke="none" stroke-opacity="1" stroke-width="1"/><rect x="205.8" y="35" width="14.7" height="8.75" fill="#45c9e0" fill-opacity="0.004474769869147894" stroke="none" stroke-opacity="1" stroke-width="1"/><rect x="220.5" y="35" width="14.7" height="8.75" fill="#45c9e0" fill-opacity="0.0038218145171331004" stroke="none" stroke-opacity="1" stroke-width="1"/><rect x="235.2" y="35" width="14.7" height="8.75" fill="#45c9e0" fill-opacity="0.0030747534078313047" stroke="none" stroke-opacity="1" stroke-width="1"/><rect x="249.9" y="35" width="14.7" height="8.75" fill="#45c9e0" fill-opacity="0.002251981665107192" stroke="none" stroke-opacity="1" stroke-width="1"/><rect x="264.6" y="35" width="14.7" height="8.75" fill="#45c9e0" fill-opacity="0.0013737586598894908" stroke="none" stroke-opacity="1" stroke-width="1"/><rect x="279.3" y="35" width="14.7" height="8.75" fill="#45c9e0" fill-opacity="0.0004617091572217105" stroke="none" stroke-opacity="1" stroke-width="1"/><rect x="0" y="43.75" width="14.7" height="8.75" fill="#45c9e0" fill-opacity="0.00039141812343863717" stroke="none" stroke-opacity="1" stroke-width="1"/><rect x="14.7" y="43.75" width="14.7" height="8.75" fill="#45c9e0" fill-opacity="0.001164616357074578" stroke="none" stroke-opacity="1" stroke-width="1"/><rect x="29.4" y="43.75" width="14.7" height="8.75" fill="#45c9e0" fill-opacity="0.0019091378708592515" stroke="none" stroke-opacity="1" stroke-width="1"/><rect x="44.1" y="43.75" width="14.7" height="8.75" fill="#45c9e0" fill-opacity="0.0026066500741980386" stroke="none" stroke-opacity="1" stroke-width="1"/><rect x="58.8" y="43.75" width="14.7" height="8.75" fill="#45c9e0" fill-opacity="0.0032399779017344556" stroke="none" stroke-opacity="1" stroke-width="1"/><rect x="73.5" y="43.75" width="14.7" height="8.75" fill="#45c9e0" fill-opacity="0.0037935267204600017" stroke="none" stroke-opacity="1" stroke-width="1"/><rect x="88.2" y="43.75" width="14.7" height="8.75" fill="#45c9e0" fill-opacity="0.004253666321334454" stroke="none" stroke-opacity="1" stroke-width="1"/><rect x="102.9" y="43.75" width="14.7" height="8.75" fill="#45c9e0" fill-opacity="0.004609066540268499" stroke="none" stroke-opacity="1" stroke-width="1"/><rect x="117.6" y="43.75" width="14.7" height="8.75" fill="#45c9e0" fill-opacity="0.004850976244366279" stroke="none" stroke-opacity="1" stroke-width="1"/><rect x="132.3" y="43.75" width="14.7" height="8.75" fill="#45c9e0" fill-opacity="0.0049734388138606275" stroke="none" stroke-opacity="1" stroke-width="1"/><rect x="147" y="43.75" width="14.7" height="8.75" fill="#45c9e0" fill-opacity="0.0049734388138606275" stroke="none" stroke-opacity="1" stroke-width="1"/><rect x="161.7" y="43.75" width="14.7" height="8.75" fill="#45c9e0" fill-opacity="0.004850976244366279" stroke="none" stroke-opacity="1" stroke-width="1"/><rect x="176.4" y="43.75" width="14.7" height="8.75" fill="#45c9e0" fill-opacity="0.004609066540268499" stroke="none" stroke-opacity="1" stroke-width="1"/><rect x="191.1" y="43.75" width="14.7" height="8.75" fill="#45c9e0" fill-opacity="0.004253666321334455" stroke="none" stroke-opacity="1" stroke-width="1"/><rect x="205.8" y="43.75" width="14.7" height="8.75" fill="#45c9e0" fill-opacity="0.003793526720460003" stroke="none" stroke-opacity="1" stroke-width="1"/><rect x="220.5" y="43.75" width="14.7" height="8.75" fill="#45c9e0" fill-opacity="0.003239977901734456" stroke="none" stroke-opacity="1" stroke-width="1"/><rect x="235.2" y="43.75" width="14.7" height="8.75" fill="#45c9e0" fill-opacity="0.002606650074198039" stroke="none" stroke-opacity="1" stroke-width="1"/><rect x="249.9" y="43.75" width="14.7" height="8.75" fill="#45c9e0" fill-opacity="0.001909137870859252" stroke="none" stroke-opacity="1" stroke-width="1"/><rect x="264.6" y="43.75" width="14.7" height="8.75" fill="#45c9e0" fill-opacity="0.0011646163570745787" stroke="none" stroke-opacity="1" stroke-width="1"/><rect x="279.3" y="43.75" width="14.7" height="8.75" fill="#45c9e0" fill-opacity="0.0003914181234386379" stroke="none" stroke-opacity="1" stroke-width="1"/><rect x="0" y="52.5" width="14.7" height="8.75" fill="#45c9e0" fill-opacity="0.00026153722857615654" stroke="none" stroke-opacity="1" stroke-width="1"/><rect x="14.7" y="52.5" width="14.7" height="8.75" fill="#45c9e0" fill-opacity="0.0007781717711686271" stroke="none" stroke-opacity="1" stroke-width="1"/><rect x="29.4" y="52.5" width="14.7" height="8.75" fill="#45c9e0" fill-opacity="0.0012756451421508845" stroke="none" stroke-opacity="1" stroke-width="1"/><rect x="44.1" y="52.5" width="14.7" height="8.75" fill="#45c9e0" fill-opacity="0.0017417078961098843" stroke="none" stroke-opacity="1" stroke-width="1"/><rect x="58.8" y="52.5" width="14.7" height="8.75" fill="#45c9e0" fill-opacity="0.002164884021269556" stroke="none" stroke-opacity="1" stroke-width="1"/><rect x="73.5" y="52.5" width="14.7" height="8.75" fill="#45c9e0" fill-opacity="0.0025347535169874284" stroke="none" stroke-opacity="1" stroke-width="1"/><rect x="88.2" y="52.5" width="14.7" height="8.75" fill="#45c9e0" fill-opacity="0.0028422089687524495" stroke="none" stroke-opacity="1" stroke-width="1"/><rect x="102.9" y="52.5" width="14.7" height="8.75" fill="#45c9e0" fill-opacity="0.00307967980295602" stroke="none" stroke-opacity="1" stroke-width="1"/><rect x="117.6" y="52.5" width="14.7" height="8.75" fill="#45c9e0" fill-opacity="0.0032413186995395348" stroke="none" stroke-opacity="1" stroke-width="1"/><rect x="132.3" y="52.5" width="14.7" height="8.75" fill="#45c9e0" fill-opacity="0.0033231455724203663" stroke="none" stroke-opacity="1" stroke-width="1"/><rect x="147" y="52.5" width="14.7" height="8.75" fill="#45c9e0" fill-opacity="0.0033231455724203663" stroke="none" stroke-opacity="1" stroke-width="1"/><rect x="161.7" y="52.5" width="14.7" height="8.75" fill="#45c9e0" fill-opacity="0.0032413186995395356" stroke="none" stroke-opacity="1" stroke-width="1"/><rect x="176.4" y="52.5" width="14.7" height="8.75" fill="#45c9e0" fill-opacity="0.00307967980295602" stroke="none" stroke-opacity="1" stroke-width="1"/><rect x="191.1" y="52.5" width="14.7" height="8.75" fill="#45c9e0" fill-opacity="0.00284220896875245" stroke="none" stroke-opacity="1" stroke-width="1"/><rect x="205.8" y="52.5" width="14.7" height="8.75" fill="#45c9e0" fill-opacity="0.002534753516987429" stroke="none" stroke-opacity="1" stroke-width="1"/><rect x="220.5" y="52.5" width="14.7" height="8.75" fill="#45c9e0" fill-opacity="0.002164884021269556" stroke="none" stroke-opacity="1" stroke-width="1"/><rect x="235.2" y="52.5" width="14.7" height="8.75" fill="#45c9e0" fill-opacity="0.0017417078961098848" stroke="none" stroke-opacity="1" stroke-width="1"/><rect x="249.9" y="52.5" width="14.7" height="8.75" fill="#45c9e0" fill-opacity="0.001275645142150885" stroke="none" stroke-opacity="1" stroke-width="1"/><rect x="264.6" y="52.5" width="14.7" height="8.75" fill="#45c9e0" fill-opacity="0.0007781717711686275" stroke="none" stroke-opacity="1" stroke-width="1"/><rect x="279.3" y="52.5" width="14.7" height="8.75" fill="#45c9e0" fill-opacity="0.0002615372285761569" stroke="none" stroke-opacity="1" stroke-width="1"/><rect x="0" y="61.25" width="14.7" height="8.75" fill="#45c9e0" fill-opacity="0.00009183966150383718" stroke="none" stroke-opacity="1" stroke-width="1"/><rect x="14.7" y="61.25" width="14.7" height="8.75" fill="#45c9e0" fill-opacity="0.00027325758724692535" stroke="none" stroke-opacity="1" stroke-width="1"/><rect x="29.4" y="61.25" width="14.7" height="8.75" fill="#45c9e0" fill-opacity="0.0004479470043020564" stroke="none" stroke-opacity="1" stroke-width="1"/><rect x="44.1" y="61.25" width="14.7" height="8.75" fill="#45c9e0" fill-opacity="0.0006116064794603968" stroke="none" stroke-opacity="1" stroke-width="1"/><rect x="58.8" y="61.25" width="14.7" height="8.75" fill="#45c9e0" fill-opacity="0.0007602061732888908" stroke="none" stroke-opacity="1" stroke-width="1"/><rect x="73.5" y="61.25" width="14.7" height="8.75" fill="#45c9e0" fill-opacity="0.0008900870681513713" stroke="none" stroke-opacity="1" stroke-width="1"/><rect x="88.2" y="61.25" width="14.7" height="8.75" fill="#45c9e0" fill-opacity="0.000998051065366348" stroke="none" stroke-opacity="1" stroke-width="1"/><rect x="102.9" y="61.25" width="14.7" height="8.75" fill="#45c9e0" fill-opacity="0.0010814397330104239" stroke="none" stroke-opacity="1" stroke-width="1"/><rect x="117.6" y="61.25" width="14.7" height="8.75" fill="#45c9e0" fill-opacity="0.0011381997653350804" stroke="none" stroke-opacity="1" stroke-width="1"/><rect x="132.3" y="61.25" width="14.7" height="8.75" fill="#45c9e0" fill-opacity="0.0011669335419687377" stroke="none" stroke-opacity="1" stroke-width="1"/><rect x="147" y="61.25" width="14.7" height="8.75" fill="#45c9e0" fill-opacity="0.0011669335419687377" stroke="none" stroke-opacity="1" stroke-width="1"/><rect x="161.7" y="61.25" width="14.7" height="8.75" fill="#45c9e0" fill-opacity="0.0011381997653350806" stroke="none" stroke-opacity="1" stroke-width="1"/><rect x="176.4" y="61.25" width="14.7" height="8.75" fill="#45c9e0" fill-opacity="0.0010814397330104239" stroke="none" stroke-opacity="1" stroke-width="1"/><rect x="191.1" y="61.25" width="14.7" height="8.75" fill="#45c9e0" fill-opacity="0.0009980510653663482" stroke="none" stroke-opacity="1" stroke-width="1"/><rect x="205.8" y="61.25" width="14.7" height="8.75" fill="#45c9e0" fill-opacity="0.0008900870681513716" stroke="none" stroke-opacity="1" stroke-width="1"/><rect x="220.5" y="61.25" width="14.7" height="8.75" fill="#45c9e0" fill-opacity="0.0007602061732888908" stroke="none" stroke-opacity="1" stroke-width="1"/><rect x="235.2" y="61.25" width="14.7" height="8.75" fill="#45c9e0" fill-opacity="0.000611606479460397" stroke="none" stroke-opacity="1" stroke-width="1"/><rect x="249.9" y="61.25" width="14.7" height="8.75" fill="#45c9e0" fill-opacity="0.00044794700430205657" stroke="none" stroke-opacity="1" stroke-width="1"/><rect x="264.6" y="61.25" width="14.7" height="8.75" fill="#45c9e0" fill-opacity="0.0002732575872469255" stroke="none" stroke-opacity="1" stroke-width="1"/><rect x="279.3" y="61.25" width="14.7" height="8.75" fill="#45c9e0" fill-opacity="0.00009183966150383733" stroke="none" stroke-opacity="1" stroke-width="1"/><text x="7.3500000000000005" y="16.8" font-family="Arial" font-size="11" fill="#6e7d8c" fill-opacity="1" stroke="none" stroke-opacity="1" stroke-width="1">HIGH</text><text x="205.79999999999998" y="16.8" font-family="Arial" font-size="12" fill="#d4dee8" fill-opacity="1" stroke="none" stroke-opacity="1" stroke-width="1">0.0 dB</text><line x1="7.3500000000000005" y1="36.4" x2="286.65000000000003" y2="36.4" fill="none" fill-opacity="1" stroke="#303840" stroke-opacity="1" stroke-width="1"/><line x1="147" y1="36.4" x2="147" y2="36.4" fill="none" fill-opacity="1" stroke="#45c9e0" stroke-opacity="1" stroke-width="1.5"/><line x1="147" y1="32.4" x2="147" y2="40.4" fill="none" fill-opacity="1" stroke="#6e7d8c" stroke-opacity="1" stroke-width="1"/><rect x="145" y="32.4" width="4" height="8" fill="#45c9e0" fill-opacity="1" stroke="none" stroke-opacity="1" stroke-width="1"/></svg>
